<svg width="30" height="30" viewBox="0 0 30 30" fill="none" xmlns="http://www.w3.org/2000/svg">
<rect width="30" height="30" transform="matrix(-1 0 0 1 30 0)" fill="#9C2020"/>
<g filter="url(#filter0_ddi_1982_1238)">
<path d="M10.1273 18.601H12.9133V5.62565H10.1273C9.81779 5.62565 9.53404 5.57405 9.53404 5.52246V3.35561C9.53404 3.30402 9.81779 3.25243 10.1273 3.25243H16.241C16.5505 3.25243 16.8601 3.30402 16.8601 3.35561L16.8859 18.601H19.3365C19.646 18.601 19.9298 18.6526 19.9298 18.73V20.8968C19.9298 20.9484 19.646 21 19.3365 21H10.1273C9.81779 21 9.53404 20.9484 9.53404 20.8968V18.73C9.53404 18.6526 9.81779 18.601 10.1273 18.601Z" fill="white"/>
</g>
<defs>
<filter id="filter0_ddi_1982_1238" x="7.24116" y="2.43844" width="13.5025" height="20.8556" filterUnits="userSpaceOnUse" color-interpolation-filters="sRGB">
<feFlood flood-opacity="0" result="BackgroundImageFix"/>
<feColorMatrix in="SourceAlpha" type="matrix" values="0 0 0 0 0 0 0 0 0 0 0 0 0 0 0 0 0 0 127 0" result="hardAlpha"/>
<feOffset dy="0.74"/>
<feGaussianBlur stdDeviation="0.222"/>
<feComposite in2="hardAlpha" operator="out"/>
<feColorMatrix type="matrix" values="0 0 0 0 0 0 0 0 0 0 0 0 0 0 0 0 0 0 0.12 0"/>
<feBlend mode="normal" in2="BackgroundImageFix" result="effect1_dropShadow_1982_1238"/>
<feColorMatrix in="SourceAlpha" type="matrix" values="0 0 0 0 0 0 0 0 0 0 0 0 0 0 0 0 0 0 127 0" result="hardAlpha"/>
<feOffset dx="-0.74" dy="0.74"/>
<feGaussianBlur stdDeviation="0.777"/>
<feComposite in2="hardAlpha" operator="out"/>
<feColorMatrix type="matrix" values="0 0 0 0 1 0 0 0 0 1 0 0 0 0 1 0 0 0 0.6 0"/>
<feBlend mode="normal" in2="effect1_dropShadow_1982_1238" result="effect2_dropShadow_1982_1238"/>
<feBlend mode="normal" in="SourceGraphic" in2="effect2_dropShadow_1982_1238" result="shape"/>
<feColorMatrix in="SourceAlpha" type="matrix" values="0 0 0 0 0 0 0 0 0 0 0 0 0 0 0 0 0 0 127 0" result="hardAlpha"/>
<feOffset dx="0.74" dy="1.48"/>
<feGaussianBlur stdDeviation="0.74"/>
<feComposite in2="hardAlpha" operator="arithmetic" k2="-1" k3="1"/>
<feColorMatrix type="matrix" values="0 0 0 0 0 0 0 0 0 0 0 0 0 0 0 0 0 0 0.25 0"/>
<feBlend mode="normal" in2="shape" result="effect3_innerShadow_1982_1238"/>
</filter>
</defs>
</svg>
