<svg width="30" height="30" viewBox="0 0 30 30" fill="none" xmlns="http://www.w3.org/2000/svg">
<path d="M20 3C23.866 3 27 6.13401 27 10V20C27 23.866 23.866 27 20 27H10C6.13401 27 3 23.866 3 20V10C3 6.13401 6.13401 3 10 3H20ZM15 9C11.6863 9 9 11.6863 9 15C9 18.3137 11.6863 21 15 21C18.3137 21 21 18.3137 21 15C21 11.6863 18.3137 9 15 9ZM15 12C16.6569 12 18 13.3431 18 15C18 16.6569 16.6569 18 15 18C13.3431 18 12 16.6569 12 15C12 13.3431 13.3431 12 15 12ZM22.5 7C21.6716 7 21 7.67157 21 8.5C21 9.32843 21.6716 10 22.5 10C23.3284 10 24 9.32843 24 8.5C24 7.67157 23.3284 7 22.5 7Z" fill="#525252"/>
</svg>
