<svg width="84" height="82" viewBox="0 0 84 82" fill="none" xmlns="http://www.w3.org/2000/svg">
<g clip-path="url(#clip0_2018_1359)">
<mask id="mask0_2018_1359" style="mask-type:luminance" maskUnits="userSpaceOnUse" x="0" y="0" width="84" height="82">
<path d="M83.2 0H0V81.12H83.2V0Z" fill="white"/>
</mask>
<g mask="url(#mask0_2018_1359)">
<path d="M68.47 0H14.74C6.6 0 0 6.6 0 14.73V66.38C0 74.52 6.6 81.11 14.73 81.11H68.46C76.6 81.11 83.19 74.51 83.19 66.38V14.73C83.19 6.59 76.59 0 68.46 0H68.47Z" fill="black"/>
<path d="M43.6906 57.3293H21.7006C21.3306 57.3293 21.1406 57.1293 21.1406 56.7193V21.2793C21.1406 21.2093 21.1406 21.1393 21.1606 21.0793C21.1806 21.0093 21.2206 20.9593 21.2706 20.9093C21.3206 20.8593 21.3806 20.8193 21.4406 20.7993C21.5106 20.7793 21.5706 20.7693 21.6406 20.7793H28.4506C28.5006 20.7793 28.5606 20.7793 28.6106 20.7893C28.6606 20.8093 28.7106 20.8393 28.7406 20.8693C28.7806 20.9093 28.8106 20.9493 28.8206 20.9993C28.8306 21.0493 28.8406 21.0993 28.8306 21.1593V50.2893H44.8506C45.1806 50.2893 45.3206 50.4593 45.2406 50.7893L44.2406 56.8193C44.2406 56.8993 44.2206 56.9793 44.1806 57.0593C44.1406 57.1293 44.0906 57.1993 44.0206 57.2393C43.9206 57.2893 43.8006 57.3193 43.6906 57.3193V57.3293Z" fill="white"/>
<path d="M49.2217 29.5908H55.3017C55.4717 29.5908 55.6317 29.6508 55.7617 29.7508C55.8917 29.8508 55.9917 29.9908 56.0317 30.1508C56.1617 30.3908 56.2617 30.6608 56.3117 30.9308C56.3917 31.2908 56.4417 31.6508 56.4817 32.0208C56.5217 32.4108 56.5417 32.8308 56.5417 33.2808C57.5817 32.0708 58.8417 31.0508 60.2517 30.2908C61.8317 29.4308 63.6117 29.0008 65.4117 29.0308C65.4817 29.0308 65.5517 29.0308 65.6117 29.0508C65.6817 29.0708 65.7317 29.1108 65.7817 29.1608C65.8317 29.2108 65.8717 29.2708 65.8917 29.3308C65.9117 29.4008 65.9217 29.4608 65.9117 29.5308V36.2808C65.9117 36.5408 65.7217 36.6708 65.3517 36.6708C63.1017 36.5308 60.8517 36.9308 58.7917 37.8408C58.0917 38.1408 57.4517 38.5808 56.9217 39.1208V56.8108C56.9217 57.1408 56.7717 57.3108 56.4717 57.3108H49.7217C49.6417 57.3208 49.5717 57.3108 49.4917 57.2908C49.4217 57.2708 49.3517 57.2208 49.3017 57.1708C49.2517 57.1208 49.2117 57.0508 49.1817 56.9808C49.1617 56.9108 49.1517 56.8308 49.1617 56.7508V37.5508C49.1617 36.7308 49.1617 35.8708 49.1317 34.9508C49.1117 34.0408 49.0817 33.1408 49.0517 32.2408C49.0317 31.4708 48.9517 30.7108 48.8317 29.9508C48.8217 29.9008 48.8217 29.8408 48.8317 29.7908C48.8417 29.7408 48.8717 29.6908 48.9117 29.6508C48.9517 29.6108 49.0017 29.5808 49.0517 29.5708C49.1017 29.5608 49.1617 29.5508 49.2117 29.5708L49.2217 29.5908Z" fill="white"/>
</g>
</g>
<defs>
<clipPath id="clip0_2018_1359">
<rect width="83.21" height="81.12" fill="white"/>
</clipPath>
</defs>
</svg>
