<svg width="717" height="869" viewBox="0 0 717 869" fill="none" xmlns="http://www.w3.org/2000/svg">
<path d="M0 869V0H300.251C386.323 0 460.585 17.404 523.038 52.212C585.49 86.6199 633.33 136.431 666.558 201.646C700.186 266.461 717 343.679 717 433.3C717 523.32 700.186 601.138 666.558 666.753C632.93 731.968 584.489 781.98 521.236 816.788C457.983 851.596 382.72 869 295.447 869H0ZM287.04 733.369C469.593 734.169 560.869 634.146 560.869 433.3C560.869 334.077 538.25 259.66 493.013 210.048C447.775 160.037 380.719 135.231 291.844 135.631H156.131V733.369H287.04Z" fill="white"/>
</svg>
