<svg width="84" height="82" viewBox="0 0 84 82" fill="none" xmlns="http://www.w3.org/2000/svg">
<g clip-path="url(#clip0_2049_886)">
<mask id="mask0_2049_886" style="mask-type:luminance" maskUnits="userSpaceOnUse" x="0" y="0" width="84" height="82">
<path d="M83.2 0H0V81.12H83.2V0Z" fill="white"/>
</mask>
<g mask="url(#mask0_2049_886)">
<path d="M68.47 0H14.74C6.6 0 0 6.6 0 14.73V66.38C0 74.52 6.6 81.11 14.73 81.11H68.46C76.6 81.11 83.19 74.51 83.19 66.38V14.73C83.19 6.59 76.59 0 68.46 0H68.47Z" fill="black"/>
<path d="M18.7388 56.8904V21.2204C18.7388 20.9604 18.8488 20.8304 19.0688 20.8304C19.6588 20.8304 20.2088 20.8304 21.0288 20.8004C21.8488 20.7804 22.7288 20.7604 23.6788 20.7404C24.6288 20.7204 25.6288 20.7004 26.6888 20.6804C27.7488 20.6604 28.7988 20.6504 29.8388 20.6504C32.6688 20.6504 35.0488 21.0004 36.9788 21.7104C38.7288 22.3004 40.3188 23.2704 41.6388 24.5604C42.7588 25.6704 43.6288 27.0104 44.1788 28.4904C44.6988 29.9304 44.9687 31.4504 44.9587 32.9804C44.9587 35.9604 44.2688 38.4104 42.8888 40.3504C41.4988 42.2904 39.5588 43.7604 37.3088 44.5604C34.9688 45.4304 32.3588 45.7304 29.4988 45.7304C28.6788 45.7304 28.0988 45.7304 27.7688 45.7004C27.4388 45.6804 26.9288 45.6704 26.2588 45.6704V56.8104C26.2588 56.8804 26.2588 56.9504 26.2388 57.0104C26.2188 57.0804 26.1787 57.1304 26.1287 57.1804C26.0787 57.2304 26.0187 57.2704 25.9587 57.2904C25.8887 57.3104 25.8288 57.3204 25.7588 57.3104H19.1088C18.8488 57.3104 18.7188 57.1604 18.7188 56.8604L18.7388 56.8904ZM26.2788 27.5304V39.1604C26.7588 39.2004 27.2088 39.2204 27.6188 39.2204H29.4587C30.8187 39.2204 32.1588 39.0004 33.4488 38.5804C34.5588 38.2504 35.5387 37.6104 36.2987 36.7404C37.0287 35.8804 37.3888 34.6904 37.3888 33.1704C37.4188 32.0904 37.1388 31.0204 36.5788 30.1004C35.9888 29.2104 35.1488 28.5104 34.1488 28.1204C32.8488 27.6204 31.4688 27.3804 30.0788 27.4204C29.1888 27.4204 28.3987 27.4204 27.7087 27.4504C27.0187 27.4704 26.5488 27.5004 26.2888 27.5304H26.2788Z" fill="white"/>
<path d="M66.5581 37.0494C65.5081 36.5094 64.3881 36.1194 63.2381 35.8794C61.9681 35.5894 60.6681 35.4394 59.3581 35.4294C58.6481 35.4094 57.9481 35.4994 57.2681 35.6794C56.8381 35.7794 56.4481 36.0194 56.1781 36.3794C55.9981 36.6594 55.8981 36.9894 55.8981 37.3294C55.9081 37.6594 56.0281 37.9694 56.2281 38.2194C56.5581 38.5994 56.9481 38.9094 57.3981 39.1394C58.1981 39.5694 59.0181 39.9494 59.8581 40.2794C61.7281 40.9094 63.5181 41.7594 65.1881 42.8194C66.3281 43.5394 67.2681 44.5194 67.9181 45.6894C68.4681 46.7994 68.7481 48.0194 68.7281 49.2594C68.7581 50.8994 68.2981 52.4994 67.3881 53.8594C66.4181 55.2394 65.0681 56.3194 63.5081 56.9594C61.8181 57.6994 59.7181 58.0794 57.2281 58.0794C55.6481 58.0994 54.0681 57.9494 52.5081 57.6294C51.2881 57.4094 50.0981 57.0294 48.9681 56.5094C48.8481 56.4494 48.7481 56.3494 48.6781 56.2294C48.6081 56.1094 48.5781 55.9794 48.5781 55.8394V49.8094C48.5781 49.7494 48.5781 49.6894 48.6081 49.6394C48.6381 49.5894 48.6681 49.5394 48.7181 49.5094C48.7681 49.4794 48.8181 49.4694 48.8781 49.4794C48.9281 49.4794 48.9881 49.5094 49.0281 49.5394C50.3681 50.3294 51.8181 50.8994 53.3281 51.2394C54.6581 51.5694 56.0281 51.7494 57.3981 51.7694C58.6981 51.7694 59.6581 51.5994 60.2681 51.2694C60.5481 51.1394 60.7781 50.9394 60.9481 50.6794C61.1081 50.4194 61.1981 50.1194 61.1981 49.8194C61.1981 49.3394 60.9181 48.8694 60.3581 48.4194C59.7981 47.9694 58.6681 47.4294 56.9581 46.7994C55.2081 46.1894 53.5481 45.3494 52.0181 44.2894C50.9281 43.5294 50.0281 42.5294 49.3981 41.3594C48.8481 40.2594 48.5681 39.0394 48.5881 37.8194C48.5881 36.3394 48.9881 34.8894 49.7581 33.6294C50.6381 32.2394 51.8981 31.1394 53.3881 30.4494C55.0281 29.6294 57.0681 29.2194 59.5281 29.2194C60.9681 29.2094 62.4081 29.3094 63.8281 29.5294C64.8581 29.6594 65.8681 29.9294 66.8181 30.3394C66.8981 30.3594 66.9681 30.3994 67.0181 30.4494C67.0781 30.4994 67.1181 30.5694 67.1481 30.6394C67.1881 30.7794 67.2081 30.9194 67.2081 31.0594V36.6994C67.2081 36.7694 67.2081 36.8294 67.1681 36.8894C67.1381 36.9494 67.0981 36.9994 67.0381 37.0394C66.9681 37.0794 66.8781 37.0994 66.7981 37.0994C66.7181 37.0994 66.6281 37.0794 66.5581 37.0394V37.0494Z" fill="white"/>
</g>
</g>
<defs>
<clipPath id="clip0_2049_886">
<rect width="83.21" height="81.12" fill="white"/>
</clipPath>
</defs>
</svg>
