<svg width="84" height="82" viewBox="0 0 84 82" fill="none" xmlns="http://www.w3.org/2000/svg">
<g clip-path="url(#clip0_2049_906)">
<mask id="mask0_2049_906" style="mask-type:luminance" maskUnits="userSpaceOnUse" x="0" y="0" width="84" height="82">
<path d="M83.2 0H0V81.12H83.2V0Z" fill="white"/>
</mask>
<g mask="url(#mask0_2049_906)">
<path d="M14.74 0H68.47C76.62 0 83.2 6.59 83.2 14.73V66.38C83.2 74.53 76.61 81.11 68.47 81.11H14.74C6.59 81.12 0 74.53 0 66.39V14.73C0 6.59 6.59 0 14.74 0Z" fill="black"/>
<path d="M19.7617 56.8906V21.2206C19.7617 20.9806 19.8617 20.8406 20.1117 20.8406C20.7017 20.8406 21.2517 20.8406 22.0517 20.8106C22.8817 20.7806 23.7517 20.7806 24.6817 20.7406C25.6217 20.7106 26.6217 20.7106 27.7017 20.6706C28.7717 20.6406 29.8117 20.6406 30.8517 20.6406C33.6917 20.6406 36.0517 20.9906 37.9917 21.7106C39.7217 22.3006 41.3217 23.2706 42.6417 24.5506C43.7517 25.6606 44.6217 27.0106 45.1717 28.5006C45.6917 29.9606 45.9717 31.4506 45.9717 33.0106C45.9717 35.9906 45.2817 38.4506 43.8917 40.3906C42.5017 42.3306 40.5617 43.7906 38.3117 44.6206C35.9517 45.4906 33.3517 45.8006 30.5117 45.8006C29.6817 45.8006 29.1217 45.8006 28.7817 45.7706C28.4317 45.7406 27.9517 45.7406 27.2917 45.7406V56.8706C27.3217 57.1106 27.1517 57.3206 26.9117 57.3606H20.1817C19.9017 57.3606 19.7617 57.2206 19.7617 56.9106V56.8906ZM27.3217 27.5306V39.1806C27.8117 39.2106 28.2617 39.2506 28.6717 39.2506H30.5117C31.8617 39.2506 33.2117 39.0406 34.5017 38.6306C35.6117 38.3206 36.5817 37.6606 37.3417 36.7906C38.0717 35.9206 38.4117 34.7406 38.4117 33.2206C38.4417 32.1506 38.1717 31.0706 37.6117 30.1306C37.0217 29.2306 36.1917 28.5406 35.1817 28.1506C33.9017 27.6306 32.5117 27.4206 31.0917 27.4606C30.1917 27.4606 29.3917 27.4606 28.7317 27.4906C28.0417 27.4606 27.5517 27.4906 27.3117 27.5206L27.3217 27.5306Z" fill="white"/>
<path d="M50.8292 29.5407H56.8992C57.2492 29.5407 57.5192 29.7807 57.6292 30.0907C57.7292 30.3707 57.7992 30.6407 57.8392 30.9607C57.9092 31.3107 57.9792 31.6907 58.0092 32.0307C58.0392 32.4107 58.0792 32.8307 58.0792 33.2807C59.1192 32.0707 60.3692 31.0607 61.7892 30.3007C63.3792 29.4007 65.2192 28.9507 67.0592 28.9507C67.2992 28.9207 67.5092 29.0907 67.5492 29.3307V36.2307C67.5492 36.5107 67.3792 36.6107 66.9992 36.6107C65.7492 36.5807 64.4692 36.6807 63.2592 36.9607C62.2492 37.1707 61.2792 37.4807 60.3492 37.9007C59.6892 38.2107 59.0692 38.6307 58.5792 39.1807V56.8607C58.5792 57.2107 58.4392 57.3507 58.1292 57.3507H51.2992C51.0192 57.3807 50.7792 57.2107 50.7492 56.9307V37.5907C50.7492 36.7607 50.7492 35.8907 50.7192 34.9907C50.6892 34.0907 50.6892 33.1907 50.6492 32.2907C50.6492 31.4907 50.5792 30.7307 50.5092 29.9307C50.4792 29.7607 50.5792 29.5807 50.7492 29.5507C50.7492 29.5207 50.8192 29.5207 50.8492 29.5507L50.8292 29.5407Z" fill="white"/>
</g>
</g>
<defs>
<clipPath id="clip0_2049_906">
<rect width="83.21" height="81.12" fill="white"/>
</clipPath>
</defs>
</svg>
