<svg width="83" height="70" viewBox="0 0 83 70" fill="none" xmlns="http://www.w3.org/2000/svg">
<path d="M51.1773 50.6818C45.5567 48.4902 39.6288 47.4125 33.3932 47.4492C26.0324 47.4929 18.9483 49.6036 12.9364 53.5403C11.7397 54.3228 10.4598 52.8292 11.3661 51.8542C11.878 51.3022 12.3369 50.7377 12.7427 50.1611C16.377 44.9929 18.527 39.1648 19.1927 32.6768C20.3204 21.6713 16.7691 11.1798 11.3268 1.61746C11.1032 1.2251 11.3199 0.486351 11.7212 0.22478C12.1409 -0.0488852 12.5691 -0.0727523 13.0056 0.153663C21.518 4.58311 29.1179 10.0593 35.8054 16.5828C45.0709 25.6197 51.9106 36.7237 53.5132 49.6334C53.6087 50.3967 53.3088 50.86 52.6139 51.0237C52.1666 51.1293 51.6385 50.8608 51.1773 50.6818ZM59.6726 66.1036C61.1024 67.1706 62.4308 67.0673 63.789 66.0785C65.3186 64.9633 66.8944 63.8179 68.5163 62.6416C69.9114 61.6298 71.5741 61.272 73.2667 61.7285C73.9294 61.909 74.6965 62.3204 75.5681 62.9629C77.0879 64.0863 78.6169 65.1975 80.1547 66.2963C80.6514 66.6497 81.184 66.8301 81.753 66.8379C82.4801 66.8485 82.8905 67.2125 82.9844 67.9298C83.0031 68.0601 82.9872 68.1931 82.9382 68.3154C82.7291 68.8506 82.3363 69.1191 81.7598 69.1206C80.7267 69.1252 79.785 68.833 78.935 68.2443C77.2887 67.1019 75.6649 65.9278 74.0645 64.7226C72.7894 63.7658 71.3874 63.4355 70.0359 64.4083C68.3414 65.6262 66.6488 66.8467 64.9581 68.0698C63.5222 69.1085 61.9633 69.4028 60.2814 68.9532C59.5697 68.7619 58.784 68.345 57.9248 67.7027C56.346 66.5236 54.8523 65.4407 53.444 64.4542C52.2265 63.5992 50.9974 63.6045 49.7569 64.4702C48.3963 65.42 46.9689 66.4547 45.4745 67.5742C44.503 68.3023 43.6635 68.7619 42.9563 68.9532C41.2852 69.4073 39.7217 69.1136 38.2659 68.072C36.7067 66.9568 35.1562 65.8296 33.6145 64.6905C32.0166 63.5111 30.7759 63.5663 29.2031 64.7042C27.6316 65.8421 26.0612 66.9815 24.4919 68.1225C23.1191 69.1198 21.5786 69.3944 19.8708 68.9462C19.1605 68.7597 18.3764 68.3444 17.5185 67.7005C16.035 66.5869 14.4462 65.4391 12.752 64.2568C11.7904 63.5845 10.3444 63.7474 9.4336 64.4083C7.67159 65.6862 5.90286 66.9549 4.12748 68.2144C3.24504 68.84 2.2151 69.1381 1.03733 69.1091C0.562398 69.0985 0.227999 68.8046 0.0342981 68.2281C0.00350708 68.1374 -0.00673326 68.041 0.00431082 67.9459C0.0766044 67.2364 0.470815 66.8653 1.18727 66.8332C1.85606 66.8042 2.42031 66.6229 2.87985 66.2896C4.56596 65.0671 6.254 63.8473 7.94396 62.6302C7.98546 62.5995 7.99389 62.5613 7.96925 62.5155C7.22164 61.1915 6.46682 59.8715 5.70481 58.5557C5.21593 57.716 5.64726 56.789 6.6503 56.7248C29.7916 55.2832 52.9326 53.8355 76.0732 52.3818C76.3741 52.3621 76.6759 52.3606 76.977 52.3773C77.6828 52.4163 78.1025 53.2101 77.9065 53.8479C77.842 54.0606 77.6497 54.3099 77.3299 54.5958C72.1737 59.2096 66.0972 62.8574 59.6911 65.9087C59.5788 65.9637 59.5728 66.0288 59.6726 66.1036ZM8.64275 58.964C8.6389 58.9652 8.63536 58.9672 8.63238 58.9699C8.6294 58.9726 8.62705 58.9759 8.62551 58.9796C8.62396 58.9834 8.62325 58.9873 8.62343 58.9914C8.62361 58.9954 8.62467 58.9993 8.62654 59.0028L10.0747 61.5199C10.0945 61.554 10.1243 61.5813 10.1602 61.5981C10.1961 61.6149 10.2363 61.6203 10.2753 61.6137C11.7266 61.3707 13.0309 61.6482 14.1886 62.4466C15.7214 63.5021 17.3425 64.6713 19.052 65.9545C20.3365 66.9182 21.6833 67.2576 23.0485 66.2963C24.3843 65.3557 25.9694 64.2094 27.8035 62.8574C29.4591 61.6368 31.1056 61.2009 33.0935 61.7929C33.6638 61.9625 34.4501 62.4213 35.4525 63.1693C36.8076 64.1776 38.1744 65.1703 39.5526 66.1472C41.0377 67.2002 42.3199 67.0443 43.7495 65.9706C45.347 64.7687 46.9677 63.5977 48.6107 62.4581C50.6631 61.0333 53.1558 61.3225 55.1368 62.8045C55.8391 63.3314 56.5494 63.8476 57.2675 64.3531C57.3354 64.4023 57.427 64.4116 57.5058 64.3767C63.2072 61.7853 68.4355 58.6842 73.1905 55.073C73.392 54.92 73.3666 54.8521 73.1145 54.8688C51.6608 56.2131 30.3623 57.5463 9.21915 58.8677C9.02425 58.8804 8.83114 58.9127 8.64275 58.964ZM57.6964 48.2568C55.01 37.8158 50.3586 27.7992 43.662 19.6271C40.7826 16.114 37.6678 13.2009 34.318 10.8884C33.4762 10.308 33.9466 8.88338 34.9751 8.88789C35.238 8.88789 35.524 8.9574 35.8331 9.09657C50.9651 15.8876 61.8727 28.85 68.1313 44.0011C68.825 45.6807 69.4368 47.3926 69.9646 49.1309C70.2943 50.2115 69.2818 51.1912 68.2696 50.551C65.6637 48.9061 62.1932 48.7845 58.9348 49.1928C58.3259 49.2686 57.8393 48.8168 57.6964 48.2568ZM59.8133 46.8047C62.1424 46.5752 64.5938 46.7266 66.8559 47.3897C66.8673 47.3927 66.8792 47.3927 66.8904 47.3895C66.9017 47.3863 66.9119 47.3801 66.9199 47.3716C66.928 47.3632 66.9335 47.3527 66.936 47.3413C66.9386 47.3299 66.9379 47.3181 66.9342 47.307C62.4214 35.1224 54.7148 24.0504 44.1277 16.4749C43.9356 16.3386 43.9171 16.3594 44.0724 16.5368C51.5947 25.1356 56.7211 35.6524 59.6703 46.706C59.6903 46.7793 59.7379 46.8122 59.8133 46.8047ZM19.7854 15.3759C23.076 26.675 22.2459 38.7152 16.324 48.9085C16.32 48.915 16.3182 48.9226 16.319 48.9302C16.3198 48.9377 16.3231 48.9448 16.3284 48.9503C16.3337 48.9558 16.3407 48.9594 16.3483 48.9605C16.3558 48.9617 16.3635 48.9603 16.3702 48.9566C21.7832 46.4589 27.496 45.1917 33.5085 45.1551C39.4489 45.1183 45.2355 46.0972 50.8684 48.0917C50.8797 48.0958 50.892 48.0969 50.9039 48.0949C50.9158 48.0928 50.927 48.0877 50.9364 48.08C50.9457 48.0724 50.9528 48.0624 50.9571 48.0511C50.9613 48.0398 50.9625 48.0276 50.9606 48.0158C48.7007 33.856 39.2597 21.9397 28.3961 13.0472C24.3713 9.7513 20.0552 6.76791 15.4477 4.09754C15.2986 4.0103 15.2641 4.04384 15.344 4.19849C17.1458 7.67196 18.6262 11.3978 19.7854 15.3759Z" fill="black"/>
</svg>
