<svg width="80" height="84" viewBox="0 0 80 84" fill="none" xmlns="http://www.w3.org/2000/svg">
<path fill-rule="evenodd" clip-rule="evenodd" d="M51.0426 0.189142L5.0058 3.58921C1.29236 3.91091 0 6.33755 0 9.24674V59.7153C0 61.9811 0.804257 63.9196 2.74557 66.5099L13.567 80.5816C15.3447 82.8474 16.9615 83.3327 20.356 83.1719L73.8169 79.9354C78.3374 79.6137 79.6325 77.5088 79.6325 73.9506V17.1728C79.6325 15.3341 78.9059 14.8044 76.7677 13.2348C76.6447 13.1461 76.5217 13.0574 76.3988 12.9685L61.7059 2.61578C58.1505 0.0310643 56.6973 -0.296185 51.0426 0.189142ZM21.5652 16.2438C17.2 16.5378 16.2099 16.6043 13.7306 14.5881L7.42689 9.57399C6.78626 8.92504 7.10797 8.11524 8.72203 7.95439L52.9783 4.72072C56.6946 4.39624 58.6303 5.69137 60.0835 6.82288L67.674 12.3223C67.9985 12.486 68.8055 13.4538 67.8349 13.4538L22.1309 16.205L21.5652 16.2438ZM16.4762 73.4653V25.2653C16.4762 23.1604 17.1223 22.1897 19.0581 22.0261L71.5511 18.9533C73.3316 18.7924 74.1358 19.924 74.1358 22.0261V69.9044C74.1358 72.0093 73.8113 73.7898 70.9049 73.9506L20.6722 76.8626C17.7658 77.0234 16.4762 76.0556 16.4762 73.4653ZM66.0628 27.85C66.3845 29.306 66.0628 30.762 64.6068 30.9284L62.1857 31.4082V66.9952C60.0835 68.1267 58.1478 68.7729 56.5309 68.7729C53.9468 68.7729 53.3003 67.9634 51.3655 65.5408L51.3643 65.5392L35.5315 40.6294V64.7294L40.5401 65.8637C40.5401 65.8637 40.5401 68.7757 36.4994 68.7757L25.359 69.4218C25.0346 68.7729 25.359 67.156 26.4878 66.8343L29.397 66.0273V34.1621L25.359 33.8348C25.0346 32.3789 25.8416 30.2767 28.1046 30.1131L40.0575 29.3088L56.5309 54.5403V32.218L52.3322 31.7354C52.0077 29.9522 53.3 28.6571 54.9141 28.499L66.0628 27.85Z" fill="black"/>
<path fill-rule="evenodd" clip-rule="evenodd" d="M5.0058 3.58921L51.0426 0.189142C56.6973 -0.296185 58.1505 0.0310643 61.7059 2.61578L76.4016 12.9685C76.5268 13.0605 76.6477 13.149 76.7643 13.2344C78.9067 14.803 79.6325 15.3344 79.6325 17.1728V73.9506C79.6325 77.5088 78.3402 79.6137 73.8169 79.9354L20.356 83.1719C16.9615 83.3327 15.3447 82.8474 13.567 80.5816L2.74557 66.5099C0.804257 63.9196 0 61.9811 0 59.7153V9.24674C0 6.33755 1.29236 3.91091 5.0058 3.58921ZM21.5652 16.2438C17.2 16.5378 16.2099 16.6043 13.7306 14.5881L7.42689 9.57399C6.78626 8.92504 7.10797 8.11524 8.72203 7.95439L52.9783 4.72072C56.6946 4.39624 58.6303 5.69137 60.0835 6.82288L67.674 12.3223C67.9985 12.486 68.8055 13.4538 67.8349 13.4538L22.1309 16.205L21.5652 16.2438ZM16.4762 25.2653V73.4653C16.4762 76.0556 17.7658 77.0234 20.6722 76.8626L70.9049 73.9506C73.8113 73.7898 74.1358 72.0093 74.1358 69.9044V22.0261C74.1358 19.924 73.3316 18.7924 71.5511 18.9533L19.0581 22.0261C17.1223 22.1897 16.4762 23.1604 16.4762 25.2653ZM66.0628 27.85C66.3845 29.306 66.0628 30.762 64.6068 30.9284L62.1857 31.4082V66.9952C60.0835 68.1267 58.1478 68.7729 56.5309 68.7729C53.9468 68.7729 53.3003 67.9634 51.3655 65.5408L51.3643 65.5392L35.5315 40.6294V64.7294L40.5401 65.8637C40.5401 65.8637 40.5401 68.7757 36.4994 68.7757L25.359 69.4218C25.0346 68.7729 25.359 67.156 26.4878 66.8343L29.397 66.0273V34.1621L25.359 33.8348C25.0346 32.3789 25.8416 30.2767 28.1046 30.1131L40.0575 29.3088L56.5309 54.5403V32.218L52.3322 31.7354C52.0077 29.9522 53.3 28.6571 54.9141 28.499L66.0628 27.85Z" fill="black"/>
<path d="M21.5652 16.2438C17.2 16.5378 16.2099 16.6043 13.7306 14.5881L7.42689 9.57399C6.78626 8.92504 7.10797 8.11524 8.72203 7.95439L52.9783 4.72072C56.6946 4.39624 58.6303 5.69137 60.0835 6.82288L67.674 12.3223C67.9985 12.486 68.8055 13.4538 67.8349 13.4538L22.1309 16.205L21.5652 16.2438Z" fill="white"/>
<path fill-rule="evenodd" clip-rule="evenodd" d="M16.4762 73.4653V25.2653C16.4762 23.1604 17.1223 22.1897 19.0581 22.0261L71.5511 18.9533C73.3316 18.7924 74.1358 19.924 74.1358 22.0261V69.9044C74.1358 72.0093 73.8113 73.7898 70.9049 73.9506L20.6722 76.8626C17.7658 77.0234 16.4762 76.0556 16.4762 73.4653ZM64.6068 30.9284C66.0628 30.762 66.3845 29.306 66.0628 27.85L54.9141 28.499C53.3 28.6571 52.0077 29.9522 52.3322 31.7354L56.5309 32.218V54.5403L40.0575 29.3088L28.1046 30.1131C25.8416 30.2767 25.0346 32.3789 25.359 33.8348L29.397 34.1621V66.0273L26.4878 66.8343C25.359 67.156 25.0346 68.7729 25.359 69.4218L36.4994 68.7757C40.5401 68.7757 40.5401 65.8637 40.5401 65.8637L35.5315 64.7294V40.6294L51.3643 65.5392L51.3655 65.5408C53.3003 67.9634 53.9468 68.7729 56.5309 68.7729C58.1478 68.7729 60.0835 68.1267 62.1857 66.9952V31.4082L64.6068 30.9284Z" fill="white"/>
</svg>
