<svg width="56" height="84" viewBox="0 0 56 84" fill="none" xmlns="http://www.w3.org/2000/svg">
<g clip-path="url(#clip0_2049_916)">
<path d="M27.6992 41.62C27.6992 33.96 33.9192 27.75 41.5692 27.75C49.2192 27.75 55.4392 33.97 55.4392 41.62C55.4392 49.27 49.2192 55.49 41.5692 55.49C33.9192 55.49 27.6992 49.27 27.6992 41.62Z" fill="#4D4D4D"/>
<path d="M0 69.3309C0 61.6709 6.22 55.4609 13.87 55.4609H27.74V69.3309C27.74 76.9909 21.52 83.2009 13.87 83.2009C6.22 83.2009 0 76.9809 0 69.3309Z" fill="#333333"/>
<path d="M27.6992 0.04V27.75H41.5692C49.2292 27.75 55.4392 21.53 55.4392 13.88C55.4392 6.23 49.2292 0 41.5792 0H27.7092V0.04H27.6992Z" fill="black"/>
<path d="M0 13.9103C0 21.5703 6.22 27.7803 13.87 27.7803H27.74V0.08027H13.87C6.22 0.04027 0 6.26027 0 13.9103Z" fill="#1A1A1A"/>
<path d="M0 41.6195C0 49.2795 6.22 55.4895 13.87 55.4895H27.74V27.7795H13.87C6.21 27.7395 0 33.9595 0 41.6095V41.6195Z" fill="#666666"/>
</g>
<defs>
<clipPath id="clip0_2049_916">
<rect width="55.45" height="83.2" fill="white"/>
</clipPath>
</defs>
</svg>
