<svg width="84" height="82" viewBox="0 0 84 82" fill="none" xmlns="http://www.w3.org/2000/svg">
<g clip-path="url(#clip0_2049_901)">
<path d="M68.47 0H14.73C6.6 0 0 6.6 0 14.73V66.38C0 74.52 6.6 81.11 14.73 81.11H68.46C76.6 81.11 83.19 74.51 83.19 66.38V14.73C83.19 6.59 76.59 0 68.46 0H68.47Z" fill="black"/>
<path d="M33.4191 48.5291H20.5291L17.9091 56.6891C17.8691 56.8391 17.7891 56.9691 17.6691 57.0591C17.5491 57.1491 17.3991 57.1991 17.2391 57.1891H10.7091C10.3391 57.1891 10.2091 56.9891 10.3191 56.5791L21.4791 24.5591C21.5891 24.2291 21.6991 23.8991 21.8091 23.4691C21.9591 22.7291 22.0291 21.9691 22.0291 21.2091C22.0291 21.1591 22.0291 21.0991 22.0391 21.0491C22.0591 20.9991 22.0891 20.9491 22.1191 20.9091C22.1491 20.8691 22.1991 20.8391 22.2591 20.8291C22.3091 20.8091 22.3591 20.8091 22.4191 20.8191H31.2891C31.5491 20.8191 31.6991 20.9091 31.7391 21.0991L44.4091 56.6291C44.5191 56.9991 44.4091 57.1891 44.0791 57.1891H36.8191C36.6991 57.1991 36.5691 57.1691 36.4691 57.0991C36.3691 57.0291 36.2891 56.9191 36.2591 56.7991L33.4091 48.5191L33.4191 48.5291ZM22.5291 41.6491H31.3491C31.1291 40.9091 30.8691 40.0691 30.5691 39.1391C30.2691 38.2091 29.9591 37.2191 29.6191 36.1491C29.2891 35.0891 28.9491 34.0291 28.6191 32.9691C28.2891 31.9091 27.9791 30.8891 27.6991 29.8991C27.4191 28.9091 27.1691 28.0091 26.9491 27.1891H26.8891C26.5791 28.6991 26.1791 30.1891 25.7191 31.6591C25.1991 33.3291 24.6691 35.0491 24.1291 36.7891C23.5891 38.5391 23.0591 40.1591 22.5391 41.6491H22.5291Z" fill="white"/>
<path d="M64.9484 45.361H53.9484C54.0784 46.451 54.4484 47.501 55.0084 48.441C55.6284 49.371 56.5184 50.101 57.5484 50.531C58.9484 51.141 60.4584 51.431 61.9884 51.401C63.1984 51.381 64.3984 51.241 65.5884 51.001C66.6484 50.861 67.6884 50.591 68.6884 50.191C68.8784 50.041 68.9684 50.131 68.9684 50.471V55.771C68.9684 55.911 68.9484 56.061 68.8884 56.191C68.8284 56.291 68.7384 56.381 68.6384 56.441C67.5384 56.931 66.3684 57.281 65.1784 57.471C63.5584 57.771 61.9184 57.911 60.2684 57.891C57.6284 57.891 55.4084 57.481 53.6284 56.661C51.9384 55.921 50.4484 54.791 49.2784 53.371C48.1784 52.031 47.3684 50.481 46.8784 48.821C46.3984 47.181 46.1484 45.481 46.1484 43.771C46.1484 41.901 46.4384 40.051 47.0184 38.271C47.5784 36.541 48.4584 34.931 49.6184 33.531C50.7584 32.141 52.1884 31.021 53.8084 30.241C55.4484 29.441 57.3784 29.151 59.6084 29.151C61.4584 29.101 63.2984 29.471 64.9984 30.211C66.4284 30.821 67.6784 31.771 68.6584 32.971C69.5684 34.151 70.2684 35.481 70.7284 36.901C71.1684 38.271 71.3984 39.701 71.3984 41.141C71.3984 41.961 71.3684 42.701 71.3184 43.371C71.2584 44.041 71.2184 44.521 71.1784 44.821C71.1684 44.941 71.1084 45.061 71.0084 45.141C70.9184 45.221 70.7984 45.271 70.6684 45.271C70.4484 45.271 70.0684 45.301 69.5284 45.351C68.9884 45.411 68.3184 45.441 67.5184 45.461C66.7184 45.481 65.8684 45.341 64.9784 45.341L64.9484 45.361ZM53.9584 40.271H61.2684C62.1584 40.271 62.8184 40.271 63.2484 40.241C63.5384 40.211 63.8084 40.121 64.0584 39.971V39.641C64.0484 39.201 63.9684 38.771 63.8384 38.361C63.5384 37.411 62.9284 36.581 62.1184 36.011C61.2984 35.441 60.3184 35.141 59.3184 35.181C58.3784 35.121 57.4484 35.341 56.6284 35.811C55.8084 36.281 55.1484 36.971 54.7184 37.811C54.3384 38.591 54.0784 39.421 53.9684 40.281L53.9584 40.271Z" fill="white"/>
</g>
<defs>
<clipPath id="clip0_2049_901">
<rect width="83.2" height="81.12" fill="white"/>
</clipPath>
</defs>
</svg>
