<svg width="84" height="83" viewBox="0 0 84 83" fill="none" xmlns="http://www.w3.org/2000/svg">
<g clip-path="url(#clip0_2049_930)">
<path d="M0.788087 28.7003C0.788087 28.7003 -1.24191 27.2403 1.19809 25.2903L6.86809 20.2203C6.86809 20.2203 8.48809 18.5103 10.2081 20.0003L62.4881 59.5803V78.5603C62.4881 78.5603 62.4581 81.5403 58.6381 81.2103L0.788087 28.7003Z" fill="#333333"/>
<path d="M14.2691 40.9395L0.789115 53.1895C0.789115 53.1895 -0.590885 54.2195 0.789115 56.0595L7.04911 61.7495C7.04911 61.7495 8.53911 63.3495 10.7291 61.5295L25.0191 50.6995L14.2691 40.9395Z" fill="black"/>
<path d="M37.9295 41.0397L62.6395 22.1697L62.4795 3.28967C62.4795 3.28967 61.4195 -0.830328 57.8995 1.30967L25.0195 31.2397L37.9295 41.0297V41.0397Z" fill="#1A1A1A"/>
<path d="M58.6284 81.2496C60.0684 82.7196 61.7984 82.2396 61.7984 82.2396L81.0584 72.7496C83.5284 71.0696 83.1784 68.9796 83.1784 68.9796V12.3096C83.1784 9.81961 80.6284 8.95961 80.6284 8.95961L63.9384 0.909611C60.2884 -1.34039 57.8984 1.31961 57.8984 1.31961C57.8984 1.31961 60.9684 -0.890389 62.4784 3.29961V78.2396C62.4784 78.7596 62.3684 79.2596 62.1484 79.7196C61.7084 80.6096 60.7584 81.4296 58.4684 81.0896L58.6284 81.2696V81.2496Z" fill="#4D4D4D"/>
</g>
<defs>
<clipPath id="clip0_2049_930">
<rect width="83.2" height="82.31" fill="white"/>
</clipPath>
</defs>
</svg>
