<svg width="74" height="84" viewBox="0 0 74 84" fill="none" xmlns="http://www.w3.org/2000/svg">
<g clip-path="url(#clip0_2049_959)">
<path d="M73.36 0L66.68 74.87L36.64 83.2L6.68 74.88L0 0H73.36Z" fill="black"/>
<path d="M60.9519 70.0991L66.6619 6.11914H36.6719V76.8291L60.9519 70.0991Z" fill="#4D4D4D"/>
<path d="M15.3008 33.9004L16.1208 43.0804H36.6708V33.9004H15.3008Z" fill="#EBEBEB"/>
<path d="M36.6784 15.3105H13.6484L14.4784 24.4905H36.6684V15.3105H36.6784Z" fill="#EBEBEB"/>
<path d="M36.6791 67.2999V57.7399H36.6391L26.4091 54.9899L25.7591 47.6699H16.5391L17.8291 62.0899L36.6391 67.3099H36.6791V67.2999Z" fill="#EBEBEB"/>
<path d="M47.9606 43.0791L46.8906 54.9891L36.6506 57.7491V67.2991L55.4806 62.0791L55.6206 60.5291L57.7806 36.3491L58.0006 33.8791L59.6606 15.2891H36.6506V24.4691H49.5906L48.7506 33.8691H36.6406V43.0491H47.9506L47.9606 43.0791Z" fill="white"/>
</g>
<defs>
<clipPath id="clip0_2049_959">
<rect width="73.36" height="83.2" fill="white"/>
</clipPath>
</defs>
</svg>
