<svg width="84" height="82" viewBox="0 0 84 82" fill="none" xmlns="http://www.w3.org/2000/svg">
<g clip-path="url(#clip0_2049_896)">
<path d="M68.47 0H14.73C6.6 0 0 6.6 0 14.73V66.38C0 74.52 6.6 81.11 14.73 81.11H68.46C76.6 81.11 83.19 74.51 83.19 66.38V14.73C83.19 6.59 76.59 0 68.46 0H68.47Z" fill="black"/>
<path d="M40.3214 48.68H27.4314L24.8114 56.83C24.7714 56.98 24.6914 57.11 24.5714 57.2C24.4514 57.29 24.3014 57.34 24.1414 57.33H17.6114C17.2414 57.33 17.1114 57.13 17.2214 56.72L28.3814 24.57C28.4914 24.24 28.6014 23.85 28.7114 23.43C28.8614 22.69 28.9314 21.93 28.9314 21.17C28.9314 21.12 28.9314 21.06 28.9414 21.01C28.9614 20.96 28.9914 20.91 29.0214 20.87C29.0614 20.83 29.1014 20.8 29.1614 20.79C29.2114 20.77 29.2614 20.77 29.3214 20.78H38.1914C38.4514 20.78 38.6014 20.87 38.6414 21.06L51.3114 56.78C51.4214 57.15 51.3114 57.34 50.9814 57.34H43.7214C43.6014 57.35 43.4714 57.32 43.3714 57.25C43.2714 57.18 43.1914 57.07 43.1614 56.95L40.3114 48.69L40.3214 48.68ZM29.4314 41.65H38.2514C38.0314 40.91 37.7714 40.07 37.4714 39.14C37.1714 38.21 36.8614 37.22 36.5214 36.15C36.1914 35.09 35.8514 34.03 35.5214 32.97C35.1914 31.91 34.8814 30.89 34.6014 29.9C34.3214 28.91 34.0714 28.01 33.8514 27.19H33.7914C33.4814 28.7 33.0814 30.19 32.6214 31.66C32.1014 33.33 31.5714 35.05 31.0314 36.79C30.4914 38.54 29.9614 40.16 29.4414 41.65H29.4314Z" fill="white"/>
<path d="M58.8482 26.689C58.2782 26.709 57.7082 26.619 57.1782 26.399C56.6482 26.179 56.1682 25.869 55.7782 25.459C55.3782 25.029 55.0782 24.529 54.8782 23.989C54.6782 23.439 54.5882 22.859 54.6082 22.279C54.5882 21.699 54.6882 21.129 54.9082 20.599C55.1282 20.069 55.4482 19.579 55.8682 19.189C56.2782 18.799 56.7682 18.489 57.2982 18.279C57.8282 18.069 58.3982 17.979 58.9682 17.989C60.3082 17.989 61.3582 18.389 62.1182 19.189C62.4982 19.609 62.7982 20.089 62.9982 20.619C63.1982 21.149 63.2882 21.719 63.2582 22.279C63.2782 22.859 63.1882 23.449 62.9782 23.989C62.7682 24.539 62.4582 25.039 62.0582 25.459C61.6382 25.879 61.1382 26.199 60.5782 26.409C60.0282 26.619 59.4382 26.719 58.8482 26.689ZM54.9982 56.769V30.089C54.9982 29.759 55.1482 29.589 55.4482 29.589H62.3182C62.6182 29.589 62.7682 29.759 62.7682 30.089V56.769C62.7682 57.139 62.6182 57.329 62.3182 57.329H55.5082C55.1782 57.329 55.0082 57.139 55.0082 56.769H54.9982Z" fill="white"/>
</g>
<defs>
<clipPath id="clip0_2049_896">
<rect width="83.2" height="81.12" fill="white"/>
</clipPath>
</defs>
</svg>
