<svg width="84" height="82" viewBox="0 0 84 82" fill="none" xmlns="http://www.w3.org/2000/svg">
<g clip-path="url(#clip0_2049_927)">
<path fill-rule="evenodd" clip-rule="evenodd" d="M41.59 0C18.61 0 0 18.61 0 41.59C0 59.99 11.9 75.53 28.43 81.04C30.51 81.4 31.29 80.16 31.29 79.06C31.29 78.07 31.24 74.8 31.24 71.31C20.79 73.23 18.09 68.76 17.26 66.42C16.79 65.22 14.76 61.53 13 60.55C11.54 59.77 9.47 57.85 12.95 57.79C16.22 57.74 18.56 60.8 19.34 62.05C23.08 68.34 29.06 66.57 31.45 65.48C31.81 62.78 32.91 60.96 34.1 59.92C24.85 58.88 15.18 55.29 15.18 39.39C15.18 34.87 16.79 31.12 19.44 28.21C19.02 27.17 17.57 22.91 19.86 17.19C19.86 17.19 23.34 16.1 31.3 21.45C34.63 20.51 38.16 20.05 41.7 20.05C45.24 20.05 48.77 20.52 52.1 21.45C60.05 16.04 63.54 17.19 63.54 17.19C65.83 22.91 64.37 27.17 63.96 28.21C66.61 31.12 68.22 34.81 68.22 39.39C68.22 55.35 58.5 58.88 49.25 59.92C50.76 61.22 52.06 63.71 52.06 67.61C52.06 73.17 52.01 77.64 52.01 79.05C52.01 80.14 52.79 81.44 54.87 81.03C63.13 78.24 70.3 72.94 75.38 65.86C80.46 58.78 83.2 50.29 83.2 41.58C83.17 18.61 64.56 0 41.59 0Z" fill="black"/>
</g>
<defs>
<clipPath id="clip0_2049_927">
<rect width="83.17" height="81.12" fill="white"/>
</clipPath>
</defs>
</svg>
