<svg width="78" height="70" viewBox="0 0 78 70" fill="none" xmlns="http://www.w3.org/2000/svg">
<g clip-path="url(#clip0_2049_936)">
<path d="M38.8503 41.3003C42.6003 41.3003 45.6303 38.2803 45.6303 34.5603C45.6303 30.8403 42.5903 27.8203 38.8503 27.8203C35.1103 27.8203 32.0703 30.8403 32.0703 34.5603C32.0703 38.2803 35.1103 41.3003 38.8503 41.3003Z" fill="black"/>
<path fill-rule="evenodd" clip-rule="evenodd" d="M6.95828 31.0095C5.41828 32.3895 4.91828 33.5895 4.91828 34.5595C4.91828 35.5295 5.42828 36.7295 6.95828 38.1095C8.49828 39.4895 10.8583 40.8395 13.9883 42.0295C20.2283 44.3995 29.0183 45.9195 38.8483 45.9195C48.6783 45.9195 57.4683 44.3995 63.7083 42.0295C66.8383 40.8395 69.1983 39.4895 70.7383 38.1095C72.2783 36.7295 72.7783 35.5295 72.7783 34.5595C72.7783 33.5895 72.2683 32.3895 70.7383 31.0095C69.1983 29.6295 66.8383 28.2795 63.7083 27.0895C57.4683 24.7195 48.6783 23.1995 38.8483 23.1995C29.0183 23.1995 20.2283 24.7195 13.9883 27.0895C10.8583 28.2795 8.49828 29.6295 6.95828 31.0095ZM12.2383 22.4795C19.1683 19.8495 28.5783 18.2695 38.8483 18.2695C49.1183 18.2695 58.5283 19.8495 65.4583 22.4795C68.9183 23.7895 71.8783 25.4095 74.0283 27.3395C76.1783 29.2695 77.7083 31.6995 77.7083 34.5495C77.7083 37.3995 76.1783 39.8295 74.0283 41.7595C71.8783 43.6895 68.9183 45.3095 65.4583 46.6195C58.5283 49.2495 49.1183 50.8295 38.8483 50.8295C28.5783 50.8295 19.1683 49.2495 12.2383 46.6195C8.77828 45.3095 5.81828 43.6895 3.66828 41.7595C1.52828 39.8295 -0.0117188 37.3995 -0.0117188 34.5495C-0.0117188 31.6995 1.51828 29.2695 3.66828 27.3395C5.81828 25.4095 8.77828 23.7895 12.2383 22.4795Z" fill="black"/>
<path fill-rule="evenodd" clip-rule="evenodd" d="M26.0186 5.31984C24.0486 4.68984 22.7386 4.84984 21.8886 5.33984C21.0386 5.82984 20.2386 6.86984 19.8086 8.88984C19.3786 10.8998 19.3786 13.6098 19.9086 16.8998C20.9686 23.4598 24.0386 31.7798 28.9486 40.2398C33.8586 48.6998 39.5786 55.5098 44.7586 59.6998C47.3586 61.7998 49.7186 63.1598 51.6886 63.7898C53.6586 64.4198 54.9686 64.2598 55.8186 63.7698C56.6686 63.2798 57.4686 62.2398 57.8986 60.2198C58.3286 58.2098 58.3286 55.4998 57.7986 52.2098C56.7386 45.6498 53.6686 37.3298 48.7586 28.8698C43.8486 20.4098 38.1286 13.5998 32.9486 9.40984C30.3486 7.30984 27.9886 5.94984 26.0186 5.31984ZM36.0386 5.59984C41.7986 10.2498 47.8786 17.5698 53.0086 26.4198C58.1486 35.2698 61.4786 44.1598 62.6486 51.4498C63.2386 55.0798 63.3086 58.4498 62.6986 61.2598C62.0986 64.0698 60.7386 66.5998 58.2686 68.0198C55.7986 69.4398 52.9186 69.3398 50.1686 68.4498C47.4186 67.5598 44.5186 65.8198 41.6486 63.4998C35.8886 58.8498 29.8086 51.5298 24.6786 42.6798C19.5386 33.8298 16.2086 24.9398 15.0386 17.6498C14.4486 14.0198 14.3786 10.6498 14.9886 7.83984C15.5886 5.02984 16.9486 2.49984 19.4186 1.07984C21.8886 -0.340156 24.7686 -0.240156 27.5186 0.649844C30.2686 1.53984 33.1686 3.27984 36.0386 5.59984Z" fill="black"/>
<path fill-rule="evenodd" clip-rule="evenodd" d="M57.879 8.88961C57.449 6.87961 56.649 5.82961 55.799 5.33961C54.949 4.84961 53.639 4.68961 51.669 5.31961C49.699 5.94961 47.339 7.30961 44.739 9.40961C39.559 13.5996 33.849 20.4096 28.929 28.8696C24.019 37.3296 20.949 45.6596 19.889 52.2096C19.359 55.4996 19.359 58.2096 19.789 60.2196C20.219 62.2296 21.019 63.2796 21.869 63.7696C22.719 64.2596 24.029 64.4196 25.999 63.7896C27.969 63.1596 30.329 61.7996 32.929 59.6996C38.109 55.5096 43.829 48.6996 48.739 40.2396C53.649 31.7796 56.719 23.4496 57.779 16.8996C58.309 13.6096 58.309 10.8996 57.879 8.88961ZM62.649 17.6596C61.479 24.9496 58.139 33.8396 53.009 42.6896C47.869 51.5396 41.799 58.8496 36.039 63.5096C33.169 65.8296 30.269 67.5796 27.519 68.4596C24.769 69.3496 21.889 69.4496 19.419 68.0296C16.949 66.6096 15.599 64.0796 14.989 61.2696C14.389 58.4596 14.459 55.0896 15.039 51.4596C16.209 44.1696 19.549 35.2796 24.679 26.4296C29.819 17.5796 35.889 10.2696 41.649 5.60961C44.519 3.28961 47.419 1.53961 50.169 0.65961C52.919 -0.23039 55.799 -0.33039 58.269 1.08961C60.739 2.50961 62.089 5.03961 62.699 7.84961C63.299 10.6596 63.229 14.0296 62.649 17.6596Z" fill="black"/>
</g>
<defs>
<clipPath id="clip0_2049_936">
<rect width="77.7" height="69.11" fill="white"/>
</clipPath>
</defs>
</svg>
