<svg width="84" height="84" viewBox="0 0 84 84" fill="none" xmlns="http://www.w3.org/2000/svg">
<g clip-path="url(#clip0_2049_942)">
<path d="M0 15.6C0 6.98 6.98 0 15.6 0H67.6C76.22 0 83.2 6.98 83.2 15.6V67.6C83.2 76.22 76.22 83.2 67.6 83.2H15.6C6.98 83.2 0 76.22 0 67.6V15.6Z" fill="black"/>
<path d="M21.8789 69.5298L28.2489 65.6798C29.4789 67.8598 30.5989 69.6998 33.2789 69.6998C35.9589 69.6998 37.4689 68.6998 37.4689 64.7898V38.2098H45.2889V64.8998C45.2889 72.9998 40.5389 76.6798 33.6189 76.6798C27.3689 76.6798 23.7289 73.4398 21.8889 69.5298M49.5189 68.6898L55.8889 64.9998C57.5689 67.7398 59.7389 69.7498 63.5989 69.7498C66.8389 69.7498 68.9089 68.1298 68.9089 65.8998C68.9089 63.2198 66.7889 62.2698 63.2089 60.7098L61.2589 59.8698C55.6189 57.4698 51.8789 54.4498 51.8789 48.0898C51.8789 42.2298 56.3489 37.7598 63.3289 37.7598C68.2989 37.7598 71.8689 39.4898 74.4389 44.0198L68.3489 47.9298C67.0089 45.5298 65.5589 44.5798 63.3189 44.5798C61.0789 44.5798 59.5789 46.0298 59.5789 47.9298C59.5789 50.2798 61.0289 51.2298 64.3789 52.6798L66.3289 53.5198C72.9789 56.3698 76.7189 59.2698 76.7189 65.8098C76.7189 72.8498 71.1889 76.6998 63.7589 76.6998C56.3289 76.6998 51.8089 73.2398 49.5189 68.7098" fill="white"/>
</g>
<defs>
<clipPath id="clip0_2049_942">
<rect width="83.2" height="83.2" fill="white"/>
</clipPath>
</defs>
</svg>
