<svg width="84" height="80" viewBox="0 0 84 80" fill="none" xmlns="http://www.w3.org/2000/svg">
<g clip-path="url(#clip0_2049_946)">
<path d="M47.3706 3.21C44.2206 7.81 43.9206 13.52 46.0906 18.6C48.4006 23.99 53.1106 28.22 58.6006 30.22C58.8306 30.31 59.0406 30.38 59.2806 30.46L59.5906 30.55C59.9106 30.65 60.2306 30.77 60.5606 30.84C75.7506 33.76 79.8606 23.08 80.9606 21.51C77.3406 26.68 71.2806 27.92 63.8406 26.12C63.1906 25.96 62.5606 25.77 61.9306 25.53L62.0406 25.57C61.2606 25.3 60.5106 24.99 59.7706 24.63L59.9006 24.69C58.4806 24 57.2606 23.25 56.1206 22.39C49.4706 17.36 45.3606 7.79 49.7006 0L47.3706 3.21Z" fill="black"/>
<path d="M8.45016 60.6405V60.6205L8.41016 60.5905L8.45016 60.6405ZM22.8602 58.0605L22.8902 58.0805L22.8502 58.0605H22.8602Z" fill="black"/>
<path d="M33.5586 44.3105L33.8686 44.6205C34.2686 45.0005 34.6686 45.3705 35.0786 45.7405L35.1286 45.7905C35.5486 46.1605 36.0086 46.5405 36.4986 46.9205L36.5686 46.9805C36.6886 47.0605 36.7886 47.1505 36.8986 47.2305C37.3886 47.6005 37.8686 47.9605 38.3786 48.3205L38.4286 48.3505C38.6386 48.5105 38.8686 48.6505 39.1186 48.8005C39.2186 48.8605 39.3286 48.9505 39.4286 49.0105C39.7986 49.2505 40.1586 49.4605 40.5286 49.6905C40.5886 49.7105 40.6386 49.7505 40.6986 49.7705C41.0086 49.9605 41.3486 50.1405 41.6786 50.3105C41.7886 50.3805 41.9086 50.4305 42.0186 50.5005C42.2486 50.6105 42.4786 50.7405 42.6986 50.8505L42.8086 50.9005C43.2786 51.1305 43.7586 51.3405 44.2186 51.5605C44.3386 51.6105 44.4386 51.6405 44.5386 51.6905C44.9186 51.8605 45.3186 52.0205 45.6986 52.1605C45.8686 52.2205 46.0386 52.2905 46.1986 52.3405C46.5486 52.4705 46.9186 52.5905 47.2686 52.7105L47.7586 52.8705C48.2686 53.0305 48.7786 53.2305 49.3186 53.3105C76.8186 57.8405 83.1886 36.7705 83.1886 36.7705C77.4586 44.9805 66.3686 48.8905 54.5486 45.8305C53.9586 45.6805 53.3786 45.5105 52.7986 45.3305L52.9986 45.3905C52.8286 45.3405 52.6886 45.2905 52.5286 45.2405C52.1686 45.1205 51.7986 44.9905 51.4486 44.8705L50.9486 44.6805C50.5586 44.5205 50.1686 44.3805 49.7886 44.2105C49.6686 44.1605 49.5586 44.1205 49.4686 44.0705C48.9786 43.8505 48.4986 43.6405 48.0186 43.4105L47.3086 43.0405L46.8986 42.8305C46.5786 42.6605 46.2886 42.4905 45.9786 42.3105C45.8986 42.2705 45.8286 42.2305 45.7486 42.1905H45.7586C45.3886 41.9605 45.0086 41.7405 44.6586 41.5105C44.5386 41.4405 44.4286 41.3605 44.3186 41.3005L43.5986 40.8305C43.0986 40.4805 42.6086 40.1105 42.1186 39.7505C42.0086 39.6505 41.8986 39.5705 41.7886 39.4805C36.5886 35.4105 32.4986 29.8605 30.5486 23.5605C28.4986 17.0205 28.9486 9.68047 32.4886 3.73047L28.1386 9.86047C22.7986 17.4905 23.0986 27.6905 27.2586 35.7605C28.0186 37.2505 28.7886 38.5105 29.6386 39.7105C30.4286 40.8405 31.2986 42.1605 32.3586 43.0705C32.7286 43.5005 33.1386 43.9005 33.5586 44.3105Z" fill="black"/>
<path d="M29.6794 39.7602L29.6394 39.7002L29.6094 39.6602L29.6794 39.7602Z" fill="black"/>
<path d="M4.871 54.9305C4.951 55.1105 5.041 55.2805 5.141 55.4405C5.191 55.5405 5.251 55.6405 5.301 55.7305C5.391 55.9105 5.491 56.0805 5.581 56.2605L6.121 57.1805C6.221 57.3505 6.321 57.5205 6.431 57.6805C6.621 58.0105 6.851 58.3205 7.041 58.6505C7.131 58.7905 7.211 58.9205 7.311 59.0605C7.691 59.6505 8.041 60.1505 8.411 60.6205C8.671 60.9805 8.941 61.3305 9.221 61.6805C9.311 61.8105 9.421 61.9405 9.511 62.0805L10.281 63.0105C10.371 63.1205 10.471 63.2405 10.571 63.3505C10.911 63.7605 11.271 64.1505 11.631 64.5605C11.631 64.5605 11.641 64.5705 11.651 64.5805C12.101 65.1405 12.581 65.6405 13.111 66.0805H13.121C13.401 66.3805 13.671 66.6605 13.971 66.9405L14.321 67.2805C14.701 67.6405 15.091 68.0005 15.501 68.3405C15.501 68.3405 15.511 68.3405 15.521 68.3505L15.721 68.5205C16.071 68.8305 16.431 69.1305 16.791 69.4205L17.221 69.7805C17.511 70.0205 17.821 70.2405 18.121 70.4705L18.591 70.8305C18.911 71.0705 19.261 71.3105 19.591 71.5405C19.711 71.6305 19.831 71.7105 19.961 71.7905L20.061 71.8705L21.031 72.5105L21.451 72.7905C21.961 73.1205 22.471 73.4205 22.971 73.7305C23.121 73.8005 23.261 73.8805 23.401 73.9705C23.771 74.1805 24.161 74.4005 24.541 74.6005C24.751 74.7205 24.961 74.8205 25.181 74.9305C25.441 75.0805 25.711 75.2205 25.991 75.3605C26.071 75.3805 26.131 75.4105 26.191 75.4405H26.201C26.311 75.4805 26.421 75.5305 26.531 75.5905C26.951 75.8005 27.381 76.0005 27.831 76.1905C27.911 76.2205 28.001 76.2605 28.091 76.3105C28.591 76.5305 29.091 76.7405 29.601 76.9405C29.721 76.9705 29.841 77.0305 29.961 77.0805C30.431 77.2605 30.911 77.4405 31.391 77.6105L31.561 77.6705C32.091 77.8505 32.611 78.0205 33.151 78.1905C33.271 78.2205 33.401 78.2705 33.531 78.3005C34.081 78.4705 34.621 78.6605 35.171 78.7705C70.781 85.2305 81.131 57.4605 81.131 57.4605C72.441 68.7305 57.011 71.7005 42.391 68.3905C41.851 68.2705 41.311 68.0905 40.761 67.9305C39.991 67.7105 39.221 67.4705 38.461 67.2105L38.791 67.3105L38.581 67.2305C38.111 67.0705 37.651 66.8905 37.191 66.7205C37.081 66.6705 36.961 66.6305 36.851 66.5905H36.811C36.301 66.3805 35.801 66.1705 35.311 65.9505C35.201 65.9205 35.111 65.8705 35.001 65.8305C34.421 65.5805 33.841 65.3105 33.271 65.0305L33.751 65.2405C33.631 65.1805 33.501 65.1205 33.381 65.0605C33.051 64.9105 32.731 64.7305 32.411 64.5705C32.171 64.4505 31.931 64.3305 31.691 64.2005L31.761 64.2305C31.371 64.0205 30.981 63.8005 30.581 63.5905C30.461 63.5105 30.331 63.4405 30.191 63.3605C29.601 63.0205 29.021 62.6605 28.451 62.3005L28.671 62.4305C28.521 62.3405 28.381 62.2405 28.241 62.1405H28.261C27.891 61.9205 27.521 61.6805 27.161 61.4305C27.041 61.3505 26.931 61.2705 26.811 61.1905C26.441 60.9405 26.071 60.6705 25.711 60.4005L25.791 60.4605C25.641 60.3405 25.491 60.2305 25.331 60.1205C25.021 59.8805 24.721 59.6505 24.411 59.4005L24.001 59.0705C23.561 58.7205 23.141 58.3705 22.721 58.0005L21.521 56.9005L21.171 56.5705C20.891 56.2805 20.591 56.0105 20.301 55.7205L19.961 55.3705C19.601 55.0105 19.251 54.6505 18.911 54.2805L18.891 54.2605L18.831 54.2105C18.461 53.8105 18.101 53.4005 17.741 52.9905C17.651 52.8805 17.561 52.7705 17.461 52.6505L16.671 51.7005C16.321 51.2505 15.971 50.8005 15.631 50.3405L15.491 50.1505C7.461 39.1405 4.531 23.9405 11.011 11.4805L5.281 18.7205C-2.089 29.2605 -1.179 42.9605 4.461 54.1405C4.591 54.4105 4.731 54.6705 4.871 54.9305Z" fill="black"/>
</g>
<defs>
<clipPath id="clip0_2049_946">
<rect width="83.2" height="79.73" fill="white"/>
</clipPath>
</defs>
</svg>
