<svg width="74" height="84" viewBox="0 0 74 84" fill="none" xmlns="http://www.w3.org/2000/svg">
<g clip-path="url(#clip0_2049_953)">
<path d="M6.67 74.91L0 0H73.37L66.7 74.87L36.63 83.2" fill="black"/>
<path d="M36.6914 76.8304V6.15039H66.6814L60.9614 70.0604" fill="#4D4D4D"/>
<path d="M13.6311 15.3108H36.6811V24.4908H23.7011L24.5511 33.8908H36.6811V43.0508H16.1311L13.6211 15.3008L13.6311 15.3108ZM16.5411 47.6708H25.7611L26.4111 55.0108L36.6811 57.7608V67.3508L17.8311 62.0908" fill="#CCCCCC"/>
<path d="M59.6606 15.3105H36.6506V24.4905H58.8206L59.6706 15.3105H59.6606ZM57.9806 33.8905H36.6406V43.0705H47.9706L46.9006 55.0005L36.6506 57.7505V67.3005L55.4606 62.0805" fill="white"/>
</g>
<defs>
<clipPath id="clip0_2049_953">
<rect width="73.37" height="83.2" fill="white"/>
</clipPath>
</defs>
</svg>
